<svg width="22" height="20" viewBox="0 0 22 20" fill="none" xmlns="http://www.w3.org/2000/svg">
<mask id="mask0_70_261" style="mask-type:alpha" maskUnits="userSpaceOnUse" x="0" y="0" width="22" height="20">
<path d="M7.44176 0.186389C7.48103 0.168763 7.52362 0.159668 7.56671 0.159668H14.4332C14.4763 0.159668 14.5189 0.168763 14.5582 0.186389L19.1833 2.26074C19.2372 2.28489 19.283 2.32422 19.315 2.3739L21.9513 6.46233C22.0235 6.57429 22.0147 6.7202 21.9298 6.82275L11.2352 19.73C11.1131 19.8774 10.8869 19.8774 10.7648 19.73L0.070249 6.82275C-0.0147449 6.7202 -0.0234637 6.57429 0.0487341 6.46233L2.68493 2.3739C2.71698 2.32422 2.76277 2.28489 2.81665 2.26074L7.44176 0.186389Z" fill="#C4C4C4"/>
</mask>
<g mask="url(#mask0_70_261)">
<path d="M22.0728 4.97021H-0.0722656V20.0136H22.0728V4.97021Z" fill="#47A9F1"/>
<path d="M22.0728 0.159668H-0.0722656V5.88684H22.0728V0.159668Z" fill="#7EC7FF"/>
<path d="M11.0007 4.2832L15.2006 9.85761H6.80078L11.0007 4.2832Z" fill="#75C1FF"/>
<path d="M11.0007 22.9922L15.2006 9.85791H6.80078L11.0007 22.9922Z" fill="#8DCCFC"/>
<path d="M11.0009 4.28351L3.55566 3.17627L6.80105 9.85799L11.0009 4.28351Z" fill="#BFE2F7"/>
<path d="M-0.0722656 6.65073L3.55494 3.17627L6.80033 9.85799L-0.0722656 6.65073Z" fill="#87CBFF"/>
<path d="M-0.0722656 6.64999L3.55494 3.17553L2.75311 2.29736L-0.0722656 6.64999Z" fill="#47A9F1"/>
<path d="M10.999 4.28351L18.4443 3.17627L15.1989 9.85799L10.999 4.28351Z" fill="#4BAEF7"/>
<path d="M22.0728 6.65073L18.4456 3.17627L15.2002 9.85799L22.0728 6.65073Z" fill="#6EBEFF"/>
<path d="M22.0735 6.64999L18.4463 3.17553L19.2481 2.29736L22.0735 6.64999Z" fill="#389BE3"/>
</g>
</svg>
