<svg width="36" height="37" viewBox="0 0 36 37" fill="none" xmlns="http://www.w3.org/2000/svg">
<path d="M26.1213 8.72096L27.182 7.6603V7.6603L26.1213 8.72096ZM27.8787 10.4783L26.818 11.539L27.8787 10.4783ZM15.1214 15.4783L16.182 16.539L15.1214 15.4783ZM21.8787 8.72097L20.818 7.66031V7.66031L21.8787 8.72097ZM14.9394 21.6603C15.5252 22.2461 16.4749 22.2461 17.0607 21.6603C17.6465 21.0745 17.6465 20.1248 17.0607 19.539L14.9394 21.6603ZM15.1214 19.721L16.182 18.6603L15.1214 19.721ZM27.8787 14.721L28.9394 15.7816L27.8787 14.721ZM24.4394 16.039C23.8536 16.6248 23.8536 17.5745 24.4394 18.1603C25.0252 18.7461 25.9749 18.7461 26.5607 18.1603L24.4394 16.039ZM9.87871 28.4783L10.9394 27.4177L9.87871 28.4783ZM8.12136 26.721L7.0607 27.7816H7.0607L8.12136 26.721ZM21.0607 15.539C20.4749 14.9532 19.5251 14.9532 18.9394 15.539C18.3536 16.1248 18.3536 17.0745 18.9394 17.6603L21.0607 15.539ZM20.8787 17.4783L21.9394 16.4177V16.4177L20.8787 17.4783ZM8.12135 22.4783L7.06069 21.4177L7.06069 21.4177L8.12135 22.4783ZM11.5607 21.1603C12.1465 20.5745 12.1465 19.6248 11.5607 19.039C10.9749 18.4532 10.0252 18.4532 9.43937 19.039L11.5607 21.1603ZM25.0607 9.78162L26.818 11.539L28.9394 9.41766L27.182 7.6603L25.0607 9.78162ZM16.182 16.539L22.9394 9.78163L20.818 7.66031L14.0607 14.4177L16.182 16.539ZM17.0607 19.539L16.182 18.6603L14.0607 20.7816L14.9394 21.6603L17.0607 19.539ZM26.818 13.6603L24.4394 16.039L26.5607 18.1603L28.9394 15.7816L26.818 13.6603ZM10.9394 27.4177L9.18202 25.6603L7.0607 27.7816L8.81805 29.539L10.9394 27.4177ZM19.818 20.6603L13.0607 27.4177L15.182 29.539L21.9394 22.7816L19.818 20.6603ZM18.9394 17.6603L19.818 18.539L21.9394 16.4177L21.0607 15.539L18.9394 17.6603ZM9.18201 23.539L11.5607 21.1603L9.43937 19.039L7.06069 21.4177L9.18201 23.539ZM21.9394 22.7816C23.6967 21.0243 23.6967 18.175 21.9394 16.4177L19.818 18.539C20.4038 19.1248 20.4038 20.0745 19.818 20.6603L21.9394 22.7816ZM9.18202 25.6603C8.59623 25.0745 8.59623 24.1248 9.18201 23.539L7.06069 21.4177C5.30333 23.175 5.30334 26.0243 7.0607 27.7816L9.18202 25.6603ZM8.81805 29.539C10.5754 31.2963 13.4247 31.2963 15.182 29.539L13.0607 27.4177C12.4749 28.0034 11.5252 28.0034 10.9394 27.4177L8.81805 29.539ZM14.0607 14.4177C12.3033 16.175 12.3033 19.0243 14.0607 20.7816L16.182 18.6603C15.5962 18.0745 15.5962 17.1248 16.182 16.539L14.0607 14.4177ZM26.818 11.539C27.4038 12.1248 27.4038 13.0745 26.818 13.6603L28.9394 15.7816C30.6967 14.0243 30.6967 11.175 28.9394 9.41766L26.818 11.539ZM27.182 7.6603C25.4246 5.90294 22.5754 5.90295 20.818 7.66031L22.9394 9.78163C23.5252 9.19584 24.4749 9.19584 25.0607 9.78162L27.182 7.6603Z" fill="#1675C2"/>
</svg>
