<svg width="28" height="28" viewBox="0 0 28 28" fill="none" xmlns="http://www.w3.org/2000/svg">
<path d="M23.1667 11.1087C23.1667 10.1294 23.0993 9.78082 22.9077 9.42247C22.7535 9.13407 22.5326 8.91321 22.2442 8.75897C21.8858 8.56732 21.5372 8.5 20.558 8.5H4.83333V16.8913C4.83333 17.8706 4.90065 18.2192 5.0923 18.5775C5.24654 18.8659 5.4674 19.0868 5.7558 19.241C6.11416 19.4327 6.46277 19.5 7.44201 19.5H21.8696L20.6852 18.3148C20.3272 17.9569 20.3272 17.3765 20.6852 17.0185C21.0431 16.6605 21.6235 16.6605 21.9815 17.0185L24.7315 19.7685C25.0895 20.1265 25.0895 20.7069 24.7315 21.0648L21.9815 23.8148C21.6235 24.1728 21.0431 24.1728 20.6852 23.8148C20.3272 23.4569 20.3272 22.8765 20.6852 22.5185L21.8696 21.3333H7.44201C6.186 21.3333 5.55146 21.2108 4.89121 20.8577C4.28331 20.5326 3.80075 20.05 3.47565 19.4421C3.12253 18.7819 3 18.1473 3 16.8913V6.66667H3.00183L3.00194 6.61652C3.01761 5.69956 3.13038 5.18785 3.41443 4.65673C3.69959 4.12353 4.12353 3.69959 4.65673 3.41443C5.23211 3.10671 5.78472 3 6.85445 3H17.4789C18.5486 3 19.1012 3.10671 19.6766 3.41443C20.2098 3.69959 20.6337 4.12353 20.9189 4.65673C21.21 5.20101 21.3212 5.72491 21.3324 6.68543C22.107 6.73517 22.6003 6.87036 23.1088 7.14231C23.7167 7.46742 24.1992 7.94998 24.5244 8.55787C24.8775 9.21813 25 9.85267 25 11.1087V14.9167C25 15.4229 24.5896 15.8333 24.0833 15.8333C23.5771 15.8333 23.1667 15.4229 23.1667 14.9167V11.1087ZM19.5 13.0833C20.0063 13.0833 20.4167 13.4937 20.4167 14C20.4167 14.5063 20.0063 14.9167 19.5 14.9167H17.6667C17.1604 14.9167 16.75 14.5063 16.75 14C16.75 13.4937 17.1604 13.0833 17.6667 13.0833H19.5ZM17.4789 4.83333H6.85445C6.06148 4.83333 5.7948 4.88483 5.52133 5.03109C5.30762 5.14538 5.14538 5.30762 5.03109 5.52133C4.89703 5.77198 4.84259 6.01694 4.83443 6.66667H19.4989C19.4907 6.01694 19.4363 5.77198 19.3022 5.52133C19.188 5.30762 19.0257 5.14538 18.812 5.03109C18.5385 4.88483 18.2718 4.83333 17.4789 4.83333Z" fill="#3F8AE0"/>
</svg>
