<svg xmlns="http://www.w3.org/2000/svg" width="31" height="30" fill="none" viewBox="0 0 31 30"><path fill="#232946" d="M18 6.61235H17C17 7.05477 17.2907 7.4446 17.7148 7.5708L18 6.61235ZM19.6627 7.30171L19.1863 8.18092C19.5754 8.39178 20.0569 8.32177 20.3698 8.00882L19.6627 7.30171ZM20.9801 5.98436L20.273 5.27725L20.273 5.27725L20.9801 5.98436ZM22.3943 5.98436L23.1014 5.27725L23.1014 5.27725L22.3943 5.98436ZM24.5156 8.10568L25.2227 7.39857V7.39857L24.5156 8.10568ZM24.5156 9.51989L23.8085 8.81278V8.81279L24.5156 9.51989ZM23.1983 10.8372L22.4912 10.1301C22.1782 10.4431 22.1082 10.9245 22.3191 11.3137L23.1983 10.8372ZM23.8877 12.5L22.9292 12.7852C23.0554 13.2093 23.4452 13.5 23.8877 13.5V12.5ZM23.8877 17.5V16.5C23.4452 16.5 23.0554 16.7907 22.9292 17.2148L23.8877 17.5ZM23.1983 19.1628L22.3191 18.6863C22.1082 19.0755 22.1782 19.5569 22.4912 19.8699L23.1983 19.1628ZM24.5156 21.8943L25.2227 22.6014H25.2227L24.5156 21.8943ZM22.3943 24.0156L21.6872 23.3085H21.6872L22.3943 24.0156ZM20.9801 24.0156L21.6872 23.3085H21.6872L20.9801 24.0156ZM19.6627 22.6983L20.3698 21.9912C20.0569 21.6782 19.5754 21.6082 19.1863 21.8191L19.6627 22.6983ZM18 23.3877L17.7148 22.4292C17.2907 22.5554 17 22.9452 17 23.3877H18ZM13 23.3877H14C14 22.9452 13.7093 22.5554 13.2853 22.4292L13 23.3877ZM11.3372 22.6983L11.8137 21.819C11.4245 21.6082 10.9431 21.6782 10.6301 21.9912L11.3372 22.6983ZM10.0199 24.0156L9.31282 23.3085L9.31282 23.3085L10.0199 24.0156ZM8.60572 24.0156L9.31282 23.3085L9.31282 23.3085L8.60572 24.0156ZM6.4844 21.8943L7.1915 21.1872H7.1915L6.4844 21.8943ZM6.4844 20.48L7.1915 21.1872H7.1915L6.4844 20.48ZM7.80173 19.1627L8.50883 19.8698C8.82179 19.5569 8.8918 19.0754 8.68094 18.6863L7.80173 19.1627ZM7.11237 17.5L8.07082 17.2147C7.94462 16.7907 7.55479 16.5 7.11237 16.5V17.5ZM7.11237 12.5V13.5C7.55479 13.5 7.94462 13.2093 8.07082 12.7852L7.11237 12.5ZM7.80173 10.8373L8.68095 11.3137C8.89181 10.9246 8.82179 10.4431 8.50884 10.1302L7.80173 10.8373ZM6.4844 9.51995L5.77729 10.2271L5.77729 10.2271L6.4844 9.51995ZM6.4844 8.10574L5.77729 7.39863H5.77729L6.4844 8.10574ZM8.60572 5.98442L7.89862 5.27731L7.89862 5.27731L8.60572 5.98442ZM10.0199 5.98442L10.727 5.27731V5.27731L10.0199 5.98442ZM11.3373 7.30173L10.6301 8.00884C10.9431 8.3218 11.4246 8.39181 11.8137 8.18095L11.3373 7.30173ZM13 6.61235L13.2853 7.5708C13.7093 7.4446 14 7.05477 14 6.61235H13ZM14 2.75C12.8954 2.75 12 3.64543 12 4.75H14V4.75V2.75ZM17 2.75H14V4.75H17V2.75ZM19 4.75C19 3.64543 18.1046 2.75 17 2.75V4.75H19ZM19 6.61235V4.75H17V6.61235H19ZM20.1392 6.42249C19.5548 6.10586 18.9343 5.84705 18.2853 5.6539L17.7148 7.5708C18.2296 7.72402 18.7221 7.9294 19.1863 8.18092L20.1392 6.42249ZM20.273 5.27725L18.9556 6.5946L20.3698 8.00882L21.6872 6.69147L20.273 5.27725ZM23.1014 5.27725C22.3204 4.4962 21.054 4.4962 20.273 5.27725L21.6872 6.69147H21.6872L23.1014 5.27725ZM25.2227 7.39857L23.1014 5.27725L21.6872 6.69147L23.8085 8.81279L25.2227 7.39857ZM25.2227 10.227C26.0038 9.44595 26.0038 8.17962 25.2227 7.39857L23.8085 8.81279V8.81278L25.2227 10.227ZM23.9054 11.5443L25.2227 10.227L23.8085 8.81279L22.4912 10.1301L23.9054 11.5443ZM24.8461 12.2148C24.653 11.5657 24.3941 10.9452 24.0775 10.3608L22.3191 11.3137C22.5706 11.7779 22.776 12.2704 22.9292 12.7852L24.8461 12.2148ZM23.8877 13.5H25.75V11.5H23.8877V13.5ZM25.75 13.5H27.75C27.75 12.3954 26.8546 11.5 25.75 11.5V13.5ZM25.75 13.5V16.5H27.75V13.5H25.75ZM25.75 16.5V18.5C26.8546 18.5 27.75 17.6046 27.75 16.5H25.75ZM25.75 16.5H23.8877V18.5H25.75V16.5ZM24.0775 19.6392C24.3941 19.0548 24.653 18.4343 24.8461 17.7852L22.9292 17.2148C22.776 17.7296 22.5706 18.2221 22.3191 18.6863L24.0775 19.6392ZM25.2227 19.773L23.9054 18.4557L22.4912 19.8699L23.8085 21.1872L25.2227 19.773ZM25.2227 22.6014C26.0038 21.8204 26.0038 20.554 25.2227 19.773L23.8085 21.1872L25.2227 22.6014ZM23.1014 24.7227L25.2227 22.6014L23.8085 21.1872L21.6872 23.3085L23.1014 24.7227ZM20.273 24.7227C21.054 25.5038 22.3204 25.5038 23.1014 24.7227L21.6872 23.3085H21.6872L20.273 24.7227ZM18.9556 23.4054L20.273 24.7227L21.6872 23.3085L20.3698 21.9912L18.9556 23.4054ZM18.2853 24.3461C18.9343 24.153 19.5548 23.8941 20.1392 23.5775L19.1863 21.8191C18.7221 22.0706 18.2296 22.276 17.7148 22.4292L18.2853 24.3461ZM19 25.25V23.3877H17V25.25H19ZM17 27.25C18.1046 27.25 19 26.3546 19 25.25H17V27.25ZM14 27.25H17V25.25H14V27.25ZM12 25.25C12 26.3546 12.8954 27.25 14 27.25V25.25H12ZM12 23.3877V25.25H14V23.3877H12ZM10.8608 23.5775C11.4452 23.8941 12.0657 24.1529 12.7148 24.3461L13.2853 22.4292C12.7704 22.276 12.2779 22.0706 11.8137 21.819L10.8608 23.5775ZM10.727 24.7227L12.0444 23.4054L10.6301 21.9912L9.31282 23.3085L10.727 24.7227ZM7.89861 24.7227C8.67966 25.5037 9.94599 25.5037 10.727 24.7227L9.31282 23.3085H9.31282L7.89861 24.7227ZM5.77729 22.6014L7.89861 24.7227L9.31282 23.3085L7.1915 21.1872L5.77729 22.6014ZM5.77729 19.7729C4.99624 20.554 4.99624 21.8203 5.77729 22.6014L7.1915 21.1872L7.1915 21.1872L5.77729 19.7729ZM7.09462 18.4556L5.77729 19.7729L7.1915 21.1872L8.50883 19.8698L7.09462 18.4556ZM6.15391 17.7852C6.34707 18.4343 6.60587 19.0548 6.92251 19.6391L8.68094 18.6863C8.42942 18.2221 8.22404 17.7296 8.07082 17.2147L6.15391 17.7852ZM7.11237 16.5H5.25V18.5H7.11237V16.5ZM5.25 16.5H5.25H3.25C3.25 17.6046 4.14543 18.5 5.25 18.5V16.5ZM5.25 16.5V13.5H3.25V16.5H5.25ZM5.25 13.5V11.5C4.14543 11.5 3.25 12.3954 3.25 13.5H5.25ZM5.25 13.5H7.11237V11.5H5.25V13.5ZM6.92252 10.3609C6.60588 10.9452 6.34707 11.5657 6.15391 12.2147L8.07082 12.7852C8.22404 12.2704 8.42942 11.7779 8.68095 11.3137L6.92252 10.3609ZM5.77729 10.2271L7.09462 11.5444L8.50884 10.1302L7.19151 8.81284L5.77729 10.2271ZM5.77729 7.39863C4.99625 8.17968 4.99625 9.44601 5.77729 10.2271L7.19151 8.81284L7.19151 8.81284L5.77729 7.39863ZM7.89862 5.27731L5.77729 7.39863L7.19151 8.81284L9.31283 6.69152L7.89862 5.27731ZM10.727 5.27731C9.94599 4.49626 8.67966 4.49626 7.89862 5.27731L9.31283 6.69152L9.31283 6.69152L10.727 5.27731ZM12.0444 6.59463L10.727 5.27731L9.31283 6.69152L10.6301 8.00884L12.0444 6.59463ZM12.7148 5.6539C12.0657 5.84705 11.4452 6.10587 10.8608 6.42252L11.8137 8.18095C12.2779 7.92941 12.7704 7.72403 13.2853 7.5708L12.7148 5.6539ZM12 4.75V6.61235H14V4.75H12Z"/><circle cx="15.5" cy="15" r="3.75" stroke="#232946" stroke-linecap="round" stroke-linejoin="round" stroke-width="2"/></svg>