<svg width="30" height="30" viewBox="0 0 30 30" fill="none" xmlns="http://www.w3.org/2000/svg">
<path d="M14.8732 6.00593C13.6473 6.09243 12.6797 7.11431 12.6797 8.36219L12.6786 10.6882L12.6561 10.6936C7.67654 11.7252 4 16.1378 4 21.3437C4 21.722 4.01934 22.0989 4.05761 22.4728C4.14883 23.364 5.28338 23.6843 5.82715 22.9723L6.03239 22.7124C7.63573 20.7497 9.91849 19.4622 12.444 19.1248L12.6786 19.0965L12.6797 21.837C12.6797 22.365 12.8568 22.8781 13.1827 23.2939C13.9875 24.3207 15.4723 24.5007 16.4991 23.6959L25.0949 16.9586C25.2446 16.8413 25.3796 16.7063 25.4969 16.5567C26.3017 15.5299 26.1217 14.0451 25.0949 13.2403L16.4991 6.50301C16.0833 6.17711 15.5702 6 15.0419 6L14.8732 6.00593ZM15.0419 7.97765C15.1279 7.97765 15.2114 8.00648 15.2791 8.05954L23.8749 14.7968C24.0421 14.9278 24.0714 15.1695 23.9404 15.3367C23.9213 15.361 23.8993 15.383 23.8749 15.4021L15.2791 22.1394C15.1119 22.2704 14.8702 22.2411 14.7392 22.074C14.6862 22.0063 14.6573 21.9227 14.6573 21.8367L14.6562 18.0492C14.6561 17.4968 14.2034 17.0517 13.6512 17.0608L13.395 17.065L13.019 17.0831C10.5205 17.2426 8.18833 18.1677 6.2966 19.6825L6.1051 19.8403L6.13125 19.6916C6.83751 15.9391 9.90518 12.9837 13.7873 12.5103C14.2834 12.4498 14.6563 12.0287 14.6565 11.529L14.6573 8.36246C14.6573 8.14981 14.8295 7.97765 15.0419 7.97765Z" fill="#232946"/>
</svg>
