<svg xmlns="http://www.w3.org/2000/svg" width="40" height="40" fill="none" viewBox="0 0 40 40"><path fill="#1675C2" fill-opacity=".06" d="M25 20H35V26.667H25z"/><path stroke="#1675C2" stroke-width="2.667" d="M23.84 5h-8.202c-5.8 0-8.701 0-10.503 1.83-1.802 1.831-1.802 4.777-1.802 10.67v4.167c0 5.892 0 8.838 1.802 10.67 1.802 1.83 4.702 1.83 10.503 1.83h8.203c5.8 0 8.7 0 10.502-1.83 1.802-1.832 1.802-4.778 1.802-10.67V17.5c0-5.893 0-8.839-1.802-10.67C32.541 5 29.642 5 23.841 5z"/><path stroke="#1675C2" stroke-linecap="round" stroke-width="2.667" d="M10.625 12.292h5.469"/><path stroke="#1675C2" stroke-width="2.667" d="M32.5 26.875h-3.646c-1.719 0-2.578 0-3.112-.534-.534-.534-.534-1.393-.534-3.112 0-1.718 0-2.578.534-3.112.534-.534 1.393-.534 3.112-.534H32.5c1.718 0 2.578 0 3.112.534.533.534.533 1.393.533 3.112s0 2.578-.533 3.112c-.534.534-1.394.534-3.112.534z"/></svg>